<?xml version="1.0" encoding="UTF-8"?>
<svg version="1.1" xmlns="http://www.w3.org/2000/svg" width="256" height="256">
<path d="M0 0 C84.48 0 168.96 0 256 0 C256 84.48 256 168.96 256 256 C171.52 256 87.04 256 0 256 C0 171.52 0 87.04 0 0 Z " fill="#0B0C0D" transform="translate(0,0)"/>
<path d="M0 0 C4.07625539 2.07518456 6.36506689 3.74328227 8 8 C8.61250946 12.99034027 9.20785096 18.53041626 6.94921875 23.1484375 C4.49984831 26.11080292 2.40762843 27.86173054 -1.42578125 28.23828125 C-9.2046064 28.43827811 -9.2046064 28.43827811 -13.0625 26.3125 C-17.10076843 21.49263123 -17.43521326 16.75380261 -17.3203125 10.6640625 C-16.86784161 6.90082902 -15.54958948 4.76205527 -13 2 C-8.77907067 -0.55198447 -4.81342771 -0.68405732 0 0 Z " fill="#F0F0F0" transform="translate(210,143)"/>
<path d="M0 0 C1.65 0 3.3 0 5 0 C7.64 4.95 10.28 9.9 13 15 C16.465 7.575 16.465 7.575 20 0 C21.98 0 23.96 0 26 0 C26 12.87 26 25.74 26 39 C24.35 39 22.7 39 21 39 C20.505 26.13 20.505 26.13 20 13 C18.68 16.3 17.36 19.6 16 23 C14.35 23.33 12.7 23.66 11 24 C7.60971036 20.12538327 7.00661926 17.3509847 5 12 C4.67 20.91 4.34 29.82 4 39 C2.68 39 1.36 39 0 39 C0 26.13 0 13.26 0 0 Z " fill="#F4F4F4" transform="translate(47,131)"/>
<path d="M0 0 C1.65 0 3.3 0 5 0 C5 8.91 5 17.82 5 27 C2.66666667 27 0.33333333 27 -2 27 C-2.33 27.33 -2.66 27.66 -3 28 C-4.890625 28.2734375 -4.890625 28.2734375 -7.25 28.375 C-8.40242188 28.44847656 -8.40242188 28.44847656 -9.578125 28.5234375 C-13.47075863 27.68212636 -14.72483881 26.25879854 -17 23 C-17.6039513 19.20865266 -17.47163618 15.51411315 -17.3125 11.6875 C-17.28994141 10.66076172 -17.26738281 9.63402344 -17.24414062 8.57617188 C-17.18537575 6.0492821 -17.10327849 3.52539745 -17 1 C-15.35 1 -13.7 1 -12 1 C-11.97494385 1.60062256 -11.9498877 2.20124512 -11.92407227 2.82006836 C-11.8084472 5.52611437 -11.68557064 8.23178283 -11.5625 10.9375 C-11.52318359 11.88302734 -11.48386719 12.82855469 -11.44335938 13.80273438 C-11.40146484 14.70185547 -11.35957031 15.60097656 -11.31640625 16.52734375 C-11.27974854 17.35999756 -11.24309082 18.19265137 -11.20532227 19.05053711 C-11.20632897 21.00338858 -11.20632897 21.00338858 -10 22 C-6.54178598 22.25003964 -6.54178598 22.25003964 -3 22 C-0.56085508 19.56085508 -0.71337477 18.78553569 -0.5859375 15.4296875 C-0.54726562 14.53378906 -0.50859375 13.63789063 -0.46875 12.71484375 C-0.4378125 11.77769531 -0.406875 10.84054688 -0.375 9.875 C-0.33632812 8.93011719 -0.29765625 7.98523438 -0.2578125 7.01171875 C-0.16338654 4.67467625 -0.07781606 2.33764499 0 0 Z " fill="#EBECEC" transform="translate(97,143)"/>
<path d="M0 0 C1.97909398 -0.02686553 3.95828971 -0.04633375 5.9375 -0.0625 C7.03964844 -0.07410156 8.14179688 -0.08570313 9.27734375 -0.09765625 C12 0 12 0 13 1 C13.08847743 3.52094076 13.11527301 6.01430893 13.09765625 8.53515625 C13.0962413 9.28840683 13.09482635 10.04165741 13.09336853 10.81773376 C13.08775376 13.2326956 13.07519883 15.64756601 13.0625 18.0625 C13.0574869 19.69596221 13.05292366 21.32942586 13.04882812 22.96289062 C13.03777954 26.97529585 13.02050506 30.98763241 13 35 C15.64 35 18.28 35 21 35 C21 36.32 21 37.64 21 39 C14.07 39 7.14 39 0 39 C0 37.68 0 36.36 0 35 C2.64 35 5.28 35 8 35 C8 25.1 8 15.2 8 5 C5.36 5 2.72 5 0 5 C0 3.35 0 1.7 0 0 Z " fill="#EEEEEE" transform="translate(167,131)"/>
<path d="M0 0 C2.62950732 2.32610263 2.3763549 5.08079111 2.625 8.4375 C0.975 8.4375 -0.675 8.4375 -2.375 8.4375 C-2.705 7.4475 -3.035 6.4575 -3.375 5.4375 C-6.79156024 5.27072718 -6.79156024 5.27072718 -10.375 5.4375 C-13.22114024 8.28364024 -12.83079076 11.24119142 -13 15.0625 C-13.05800781 16.12210938 -13.05800781 16.12210938 -13.1171875 17.203125 C-13.21147724 18.94748524 -13.29432891 20.69245691 -13.375 22.4375 C-11.725 22.4375 -10.075 22.4375 -8.375 22.4375 C-8.375 24.0875 -8.375 25.7375 -8.375 27.4375 C-13.325 27.4375 -18.275 27.4375 -23.375 27.4375 C-23.375 25.7875 -23.375 24.1375 -23.375 22.4375 C-21.725 22.4375 -20.075 22.4375 -18.375 22.4375 C-18.375 16.4975 -18.375 10.5575 -18.375 4.4375 C-19.695 4.4375 -21.015 4.4375 -22.375 4.4375 C-22.375 3.1175 -22.375 1.7975 -22.375 0.4375 C-19.735 0.4375 -17.095 0.4375 -14.375 0.4375 C-14.375 1.0975 -14.375 1.7575 -14.375 2.4375 C-13.694375 1.9425 -13.01375 1.4475 -12.3125 0.9375 C-8.0847729 -1.22133937 -4.567361 -1.08174339 0 0 Z " fill="#EDEDED" transform="translate(131.375,143.5625)"/>
<path d="M0 0 C1.16015625 0.02900391 1.16015625 0.02900391 2.34375 0.05859375 C3.1171875 0.05988281 3.890625 0.06117188 4.6875 0.0625 C7.41778618 0.61152494 8.28029321 1.18999498 9.84375 3.49609375 C10.52719413 7.54550022 10.43091428 11.43627213 9.84375 15.49609375 C7.78125 18.30859375 7.78125 18.30859375 4.84375 19.49609375 C1.21875 19.49609375 1.21875 19.49609375 -2.15625 18.49609375 C-4.96215434 15.58626702 -5.56782064 13.49448375 -5.53125 9.49609375 C-5.53898438 8.65046875 -5.54671875 7.80484375 -5.5546875 6.93359375 C-4.9540115 3.25886997 -3.77920955 0.86949205 0 0 Z " fill="#101111" transform="translate(203.15625,147.50390625)"/>
<path d="M0 0 C1.65 0 3.3 0 5 0 C4.32370076 5.40275213 2.65870796 10.23717965 0.83984375 15.3359375 C0.53051407 16.21528961 0.22118439 17.09464172 -0.09751892 18.00064087 C-1.08123585 20.79374559 -2.07176003 23.58437968 -3.0625 26.375 C-3.73287344 28.27458028 -4.40280025 30.17431825 -5.07226562 32.07421875 C-6.70967725 36.71798776 -8.35319596 41.35955391 -10 46 C-11.65 46 -13.3 46 -15 46 C-12.53404961 36.06895774 -9.163526 26.46937827 -5.8125 16.8125 C-5.24772306 15.17654405 -4.68326747 13.54047711 -4.11914062 11.90429688 C-2.74979253 7.9349097 -1.37611403 3.96704636 0 0 Z " fill="#EEEEEE" transform="translate(135,68)"/>
<path d="M0 0 C3.96 0 7.92 0 12 0 C12 7.26 12 14.52 12 22 C14.64 22 17.28 22 20 22 C20 23.32 20 24.64 20 26 C13.4 26 6.8 26 0 26 C0 24.68 0 23.36 0 22 C2.64 22 5.28 22 8 22 C7.67 16.39 7.34 10.78 7 5 C4.69 4.67 2.38 4.34 0 4 C0 2.68 0 1.36 0 0 Z " fill="#FCFCFC" transform="translate(141,144)"/>
<path d="M0 0 C4.25314786 1.67642324 7.12101814 4.7175909 10.3125 7.875 C10.87517578 8.40480469 11.43785156 8.93460938 12.01757812 9.48046875 C13.61328125 11.0546875 13.61328125 11.0546875 16 14 C15.72027572 17.31988556 14.39819944 18.96291316 12.05859375 21.234375 C11.47529297 21.80800781 10.89199219 22.38164063 10.29101562 22.97265625 C9.67935547 23.55917969 9.06769531 24.14570312 8.4375 24.75 C7.82197266 25.35199219 7.20644531 25.95398438 6.57226562 26.57421875 C5.05485187 28.05634381 3.52829404 29.5290967 2 31 C0.68 30.34 -0.64 29.68 -2 29 C-0.46356148 25.31930113 1.78150945 23.01224796 4.625 20.25 C5.44226563 19.45078125 6.25953125 18.6515625 7.1015625 17.828125 C7.72804687 17.22484375 8.35453125 16.6215625 9 16 C5.49102731 11.81576108 1.91939465 7.80411834 -2 4 C-1.34 2.68 -0.68 1.36 0 0 Z " fill="#F2F2F2" transform="translate(148,76)"/>
<path d="M0 0 C1.32 0.33 2.64 0.66 4 1 C3.52590352 5.31730413 0.96603297 7.33647461 -2.0625 10.25 C-2.98160156 11.14203125 -3.90070313 12.0340625 -4.84765625 12.953125 C-5.55792969 13.62859375 -6.26820312 14.3040625 -7 15 C-4.15191913 18.39616517 -1.33210458 21.68233475 1.875 24.75 C4 27 4 27 4 30 C3.01 30.33 2.02 30.66 1 31 C-0.796875 29.8125 -0.796875 29.8125 -2.75 28 C-3.44609375 27.35933594 -4.1421875 26.71867187 -4.859375 26.05859375 C-7.95284981 23.08366451 -11.00754023 20.0766227 -14 17 C-12.70396588 14.17131143 -11.30810402 12.0298979 -9.1796875 9.765625 C-8.64472656 9.19199219 -8.10976562 8.61835937 -7.55859375 8.02734375 C-7.00300781 7.44082031 -6.44742188 6.85429688 -5.875 6.25 C-5.31167969 5.64800781 -4.74835938 5.04601562 -4.16796875 4.42578125 C-2.78275854 2.94665849 -1.3919271 1.47280359 0 0 Z " fill="#EEEEEE" transform="translate(111,76)"/>
<path d="M0 0 C0.33 0 0.66 0 1 0 C1 9.24 1 18.48 1 28 C2.65 28 4.3 28 6 28 C6 28.33 6 28.66 6 29 C4.02 29 2.04 29 0 29 C-0.33 22.4 -0.66 15.8 -1 9 C-1.66 9 -2.32 9 -3 9 C-2.01 6.03 -1.02 3.06 0 0 Z " fill="#282929" transform="translate(67,142)"/>
<path d="M0 0 C1.98 0 3.96 0 6 0 C6 1.98 6 3.96 6 6 C4.02 6 2.04 6 0 6 C0 4.02 0 2.04 0 0 Z " fill="#D7D7D7" transform="translate(148,131)"/>
<path d="M0 0 C0.66 0 1.32 0 2 0 C2.3125 2.1875 2.3125 2.1875 2 5 C-0.125 7.375 -0.125 7.375 -3 10 C-5.04578012 12.29491493 -7.0245602 14.64440683 -9 17 C-9.66 16.34 -10.32 15.68 -11 15 C-10.2059375 14.25234375 -9.411875 13.5046875 -8.59375 12.734375 C-7.56197938 11.74012331 -6.53075775 10.74530171 -5.5 9.75 C-4.97535156 9.25886719 -4.45070313 8.76773438 -3.91015625 8.26171875 C-2.52909948 6.91653358 -1.25735528 5.4614714 0 4 C0 2.68 0 1.36 0 0 Z " fill="#1F1F20" transform="translate(114,76)"/>
</svg>
